<svg xmlns="http://www.w3.org/2000/svg" viewBox="328 246 920 1024">
  <path fill="#000000" d="M 333.035156 250.703125 C 332.667969 250.976562 332.394531 479.859375 332.394531 759.328125 L 332.394531 1267.316406 L 605.1875 1267.316406 C 755.210938 1267.316406 877.613281 1266.949219 877.15625 1266.582031 C 876.605469 1266.125 872.125 1264.203125 867.09375 1262.285156 C 826.933594 1246.824219 786.589844 1219.195312 739.84375 1175.195312 C 708.191406 1145.28125 677.453125 1109.878906 635.648438 1055.082031 C 619.546875 1033.949219 597.960938 1001.199219 578.109375 967.71875 C 571.980469 957.472656 554.78125 922.164062 549.65625 909.628906 C 541.058594 888.40625 532.824219 861.601562 529.074219 842.574219 C 524.59375 819.980469 523.402344 793.816406 525.78125 774.242188 C 531.363281 729.414062 549.566406 692.273438 582.957031 657.785156 C 613.238281 626.5 651.933594 598.601562 707.917969 567.769531 C 717.613281 562.375 753.839844 544.078125 762.347656 540.234375 C 839.375 505.382812 894.078125 488.277344 946.679688 482.511719 C 986.5625 478.121094 1016.019531 482.511719 1027.914062 494.679688 C 1033.765625 500.625 1036.238281 507.027344 1036.238281 515.8125 C 1036.238281 533.007812 1026.90625 550.207031 1006.691406 570.242188 C 986.746094 590 957.929688 611.132812 915.210938 637.113281 C 877.519531 660.074219 852.457031 676.632812 826.75 695.292969 C 773.691406 733.898438 745.789062 769.941406 736.734375 811.746094 C 725.023438 864.988281 744.875 929.664062 797.75 1011.082031 C 808.179688 1027.089844 835.898438 1068.347656 842.210938 1077.3125 C 845.867188 1082.433594 860.140625 1103.015625 873.953125 1123.050781 C 928.65625 1202.273438 943.84375 1224.226562 966.347656 1256.152344 L 974.121094 1267.222656 L 1109.785156 1267.316406 C 1207.394531 1267.316406 1245.359375 1267.039062 1245.359375 1266.308594 C 1245.359375 1265.210938 1243.804688 1262.921875 1220.570312 1229.808594 C 1212.242188 1218.007812 1200.167969 1200.441406 1193.671875 1190.929688 C 1187.179688 1181.324219 1179.128906 1169.613281 1175.835938 1164.859375 C 1172.449219 1160.101562 1167.875 1153.515625 1165.589844 1150.222656 C 1156.898438 1137.597656 1144.273438 1119.300781 1139.699219 1112.714844 C 1137.046875 1108.964844 1131.285156 1100.457031 1126.894531 1093.960938 C 1122.410156 1087.375 1117.105469 1079.597656 1115 1076.578125 C 1111.160156 1071.089844 1095.332031 1048.128906 1074.75 1018.492188 C 1068.621094 1009.707031 1059.929688 996.902344 1055.265625 990.132812 C 1050.691406 983.363281 1042.550781 971.285156 1037.0625 963.417969 C 1013.824219 929.574219 990.957031 895.726562 990.496094 894.628906 C 990.222656 893.804688 993.332031 892.25 1000.835938 889.597656 C 1019.863281 882.734375 1053.894531 865.171875 1069.71875 854.011719 C 1119.757812 818.515625 1148.847656 785.582031 1173.089844 736.734375 C 1207.304688 668.03125 1217.183594 585.792969 1200.992188 504.832031 C 1197.605469 487.910156 1195.777344 481.140625 1190.199219 464.582031 C 1183.703125 445.464844 1180.773438 438.234375 1173.640625 424.058594 C 1158.546875 393.960938 1143.085938 372.003906 1121.40625 350.234375 C 1081.0625 309.523438 1028.097656 280.617188 964.976562 264.792969 C 937.714844 258.023438 905.878906 253.265625 872.125 251.070312 C 858.492188 250.15625 333.859375 249.789062 333.035156 250.703125 Z M 333.035156 250.703125"/>
</svg>
